<mxfile host="app.diagrams.net" modified="2023-10-09T18:10:54.729Z" agent="Mozilla/5.0 (Windows NT 10.0; Win64; x64; rv:109.0) Gecko/20100101 Firefox/118.0" etag="2r6GcMH4CVFWZ9gb_b2Q" version="22.0.4" type="device">
  <diagram name="Register(Email)" id="QR67rrUAhwOJVpVY5eiT">
    <mxGraphModel dx="2074" dy="1106" grid="1" gridSize="10" guides="1" tooltips="1" connect="1" arrows="1" fold="1" page="1" pageScale="1" pageWidth="827" pageHeight="1169" math="0" shadow="0">
      <root>
        <mxCell id="gcAegZrzO3KHqWlCmLdn-0" />
        <mxCell id="gcAegZrzO3KHqWlCmLdn-1" parent="gcAegZrzO3KHqWlCmLdn-0" />
        <mxCell id="gcAegZrzO3KHqWlCmLdn-2" value="" style="rounded=0;whiteSpace=wrap;html=1;" parent="gcAegZrzO3KHqWlCmLdn-1" vertex="1">
          <mxGeometry x="90" y="90" width="620" height="940" as="geometry" />
        </mxCell>
        <mxCell id="gcAegZrzO3KHqWlCmLdn-3" value="" style="rounded=0;whiteSpace=wrap;html=1;" parent="gcAegZrzO3KHqWlCmLdn-1" vertex="1">
          <mxGeometry x="90" y="90" width="620" height="50" as="geometry" />
        </mxCell>
        <mxCell id="gcAegZrzO3KHqWlCmLdn-4" value="" style="rounded=0;whiteSpace=wrap;html=1;" parent="gcAegZrzO3KHqWlCmLdn-1" vertex="1">
          <mxGeometry x="90" y="140" width="620" height="100" as="geometry" />
        </mxCell>
        <mxCell id="gcAegZrzO3KHqWlCmLdn-5" value="&lt;div&gt;banner&lt;/div&gt;" style="text;html=1;strokeColor=none;fillColor=none;align=center;verticalAlign=middle;whiteSpace=wrap;rounded=0;" parent="gcAegZrzO3KHqWlCmLdn-1" vertex="1">
          <mxGeometry x="80" y="80" width="60" height="30" as="geometry" />
        </mxCell>
        <mxCell id="gcAegZrzO3KHqWlCmLdn-6" value="" style="rounded=0;whiteSpace=wrap;html=1;" parent="gcAegZrzO3KHqWlCmLdn-1" vertex="1">
          <mxGeometry x="140" y="290" width="110" height="150" as="geometry" />
        </mxCell>
        <mxCell id="gcAegZrzO3KHqWlCmLdn-10" value="footpage" style="rounded=0;whiteSpace=wrap;html=1;" parent="gcAegZrzO3KHqWlCmLdn-1" vertex="1">
          <mxGeometry x="90" y="970" width="620" height="60" as="geometry" />
        </mxCell>
        <mxCell id="gcAegZrzO3KHqWlCmLdn-11" value="" style="rounded=0;whiteSpace=wrap;html=1;" parent="gcAegZrzO3KHqWlCmLdn-1" vertex="1">
          <mxGeometry x="140" y="390" width="110" height="80" as="geometry" />
        </mxCell>
        <mxCell id="gcAegZrzO3KHqWlCmLdn-14" value="Description" style="rounded=0;whiteSpace=wrap;html=1;" parent="gcAegZrzO3KHqWlCmLdn-1" vertex="1">
          <mxGeometry x="140" y="430" width="110" height="30" as="geometry" />
        </mxCell>
        <mxCell id="gcAegZrzO3KHqWlCmLdn-17" value="Logo" style="rounded=1;whiteSpace=wrap;html=1;" parent="gcAegZrzO3KHqWlCmLdn-1" vertex="1">
          <mxGeometry x="110" y="102.5" width="60" height="25" as="geometry" />
        </mxCell>
        <mxCell id="gcAegZrzO3KHqWlCmLdn-18" value="Language" style="rounded=1;whiteSpace=wrap;html=1;" parent="gcAegZrzO3KHqWlCmLdn-1" vertex="1">
          <mxGeometry x="180" y="102.5" width="60" height="25" as="geometry" />
        </mxCell>
        <mxCell id="gcAegZrzO3KHqWlCmLdn-19" value="Currency" style="rounded=1;whiteSpace=wrap;html=1;" parent="gcAegZrzO3KHqWlCmLdn-1" vertex="1">
          <mxGeometry x="250" y="102.5" width="60" height="25" as="geometry" />
        </mxCell>
        <mxCell id="gcAegZrzO3KHqWlCmLdn-20" value="" style="ellipse;whiteSpace=wrap;html=1;" parent="gcAegZrzO3KHqWlCmLdn-1" vertex="1">
          <mxGeometry x="110" y="160" width="380" height="70" as="geometry" />
        </mxCell>
        <mxCell id="gcAegZrzO3KHqWlCmLdn-21" value="Find a roommate" style="rounded=0;whiteSpace=wrap;html=1;" parent="gcAegZrzO3KHqWlCmLdn-1" vertex="1">
          <mxGeometry x="240" y="180" width="100" height="30" as="geometry" />
        </mxCell>
        <mxCell id="gcAegZrzO3KHqWlCmLdn-22" value="Find a Room" style="rounded=0;whiteSpace=wrap;html=1;" parent="gcAegZrzO3KHqWlCmLdn-1" vertex="1">
          <mxGeometry x="140" y="180" width="95" height="30" as="geometry" />
        </mxCell>
        <mxCell id="gcAegZrzO3KHqWlCmLdn-23" value="My Posts" style="rounded=0;whiteSpace=wrap;html=1;" parent="gcAegZrzO3KHqWlCmLdn-1" vertex="1">
          <mxGeometry x="352.5" y="180" width="95" height="30" as="geometry" />
        </mxCell>
        <mxCell id="gcAegZrzO3KHqWlCmLdn-24" value="" style="ellipse;whiteSpace=wrap;html=1;" parent="gcAegZrzO3KHqWlCmLdn-1" vertex="1">
          <mxGeometry x="555.5" y="160" width="120" height="70" as="geometry" />
        </mxCell>
        <mxCell id="gcAegZrzO3KHqWlCmLdn-25" value="Create a Post" style="rounded=0;whiteSpace=wrap;html=1;" parent="gcAegZrzO3KHqWlCmLdn-1" vertex="1">
          <mxGeometry x="568" y="180" width="95" height="30" as="geometry" />
        </mxCell>
        <mxCell id="gcAegZrzO3KHqWlCmLdn-26" value="&lt;div&gt;landpage banner&lt;br&gt;&lt;/div&gt;" style="text;html=1;strokeColor=none;fillColor=none;align=center;verticalAlign=middle;whiteSpace=wrap;rounded=0;" parent="gcAegZrzO3KHqWlCmLdn-1" vertex="1">
          <mxGeometry x="85" y="140" width="110" height="30" as="geometry" />
        </mxCell>
        <mxCell id="gcAegZrzO3KHqWlCmLdn-38" value="&lt;div align=&quot;left&quot;&gt;Name&lt;/div&gt;" style="rounded=0;whiteSpace=wrap;html=1;align=left;" parent="gcAegZrzO3KHqWlCmLdn-1" vertex="1">
          <mxGeometry x="140" y="400" width="60" height="20" as="geometry" />
        </mxCell>
        <mxCell id="gcAegZrzO3KHqWlCmLdn-41" value="&lt;font style=&quot;font-size: 9px;&quot;&gt;Location&lt;/font&gt;" style="rounded=0;whiteSpace=wrap;html=1;" parent="gcAegZrzO3KHqWlCmLdn-1" vertex="1">
          <mxGeometry x="140" y="460" width="110" height="10" as="geometry" />
        </mxCell>
        <mxCell id="gcAegZrzO3KHqWlCmLdn-47" value="&lt;p style=&quot;line-height: 220%;&quot;&gt;&lt;font style=&quot;font-size: 6px;&quot;&gt;Age - Gender&lt;/font&gt;&lt;/p&gt;" style="rounded=0;whiteSpace=wrap;html=1;" parent="gcAegZrzO3KHqWlCmLdn-1" vertex="1">
          <mxGeometry x="140" y="420" width="60" height="10" as="geometry" />
        </mxCell>
        <mxCell id="gcAegZrzO3KHqWlCmLdn-50" value="&lt;font style=&quot;font-size: 8px;&quot;&gt;Status&lt;/font&gt;" style="rounded=0;whiteSpace=wrap;html=1;" parent="gcAegZrzO3KHqWlCmLdn-1" vertex="1">
          <mxGeometry x="140" y="384" width="50" height="10" as="geometry" />
        </mxCell>
        <mxCell id="gcAegZrzO3KHqWlCmLdn-80" value="" style="rounded=0;whiteSpace=wrap;html=1;" parent="gcAegZrzO3KHqWlCmLdn-1" vertex="1">
          <mxGeometry x="140" y="540" width="110" height="150" as="geometry" />
        </mxCell>
        <mxCell id="gcAegZrzO3KHqWlCmLdn-84" value="" style="rounded=0;whiteSpace=wrap;html=1;" parent="gcAegZrzO3KHqWlCmLdn-1" vertex="1">
          <mxGeometry x="140" y="750" width="110" height="150" as="geometry" />
        </mxCell>
        <mxCell id="gcAegZrzO3KHqWlCmLdn-85" value="" style="rounded=0;whiteSpace=wrap;html=1;" parent="gcAegZrzO3KHqWlCmLdn-1" vertex="1">
          <mxGeometry x="279" y="750" width="110" height="150" as="geometry" />
        </mxCell>
        <mxCell id="gcAegZrzO3KHqWlCmLdn-86" value="" style="rounded=0;whiteSpace=wrap;html=1;" parent="gcAegZrzO3KHqWlCmLdn-1" vertex="1">
          <mxGeometry x="440" y="750" width="110" height="150" as="geometry" />
        </mxCell>
        <mxCell id="gcAegZrzO3KHqWlCmLdn-87" value="" style="rounded=0;whiteSpace=wrap;html=1;" parent="gcAegZrzO3KHqWlCmLdn-1" vertex="1">
          <mxGeometry x="570" y="750" width="110" height="150" as="geometry" />
        </mxCell>
        <mxCell id="gcAegZrzO3KHqWlCmLdn-92" value="Log in" style="rounded=0;whiteSpace=wrap;html=1;" parent="gcAegZrzO3KHqWlCmLdn-1" vertex="1">
          <mxGeometry x="530.5" y="100" width="80" height="30" as="geometry" />
        </mxCell>
        <mxCell id="gcAegZrzO3KHqWlCmLdn-93" value="Register" style="rounded=0;whiteSpace=wrap;html=1;" parent="gcAegZrzO3KHqWlCmLdn-1" vertex="1">
          <mxGeometry x="620.5" y="100" width="80" height="30" as="geometry" />
        </mxCell>
        <mxCell id="gcAegZrzO3KHqWlCmLdn-94" value="Note: the buttons Log in and Register appear when the user is not logged in for all the pages" style="rounded=0;whiteSpace=wrap;html=1;" parent="gcAegZrzO3KHqWlCmLdn-1" vertex="1">
          <mxGeometry x="480" y="10" width="280" height="60" as="geometry" />
        </mxCell>
        <mxCell id="gcAegZrzO3KHqWlCmLdn-95" value="" style="rounded=0;whiteSpace=wrap;html=1;fillColor=#dae8fc;opacity=70;strokeColor=#6c8ebf;" parent="gcAegZrzO3KHqWlCmLdn-1" vertex="1">
          <mxGeometry x="90" y="90" width="620" height="940" as="geometry" />
        </mxCell>
        <mxCell id="gcAegZrzO3KHqWlCmLdn-104" value="Note: the register window is a pop up" style="rounded=0;whiteSpace=wrap;html=1;" parent="gcAegZrzO3KHqWlCmLdn-1" vertex="1">
          <mxGeometry x="720" y="470" width="280" height="60" as="geometry" />
        </mxCell>
        <mxCell id="rm7FIDK_wC54tCsGElGW-0" value="" style="rounded=0;whiteSpace=wrap;html=1;" parent="gcAegZrzO3KHqWlCmLdn-1" vertex="1">
          <mxGeometry x="180" y="270" width="460" height="520" as="geometry" />
        </mxCell>
        <mxCell id="rm7FIDK_wC54tCsGElGW-1" value="Password" style="rounded=0;whiteSpace=wrap;html=1;" parent="gcAegZrzO3KHqWlCmLdn-1" vertex="1">
          <mxGeometry x="215" y="350" width="130" height="30" as="geometry" />
        </mxCell>
        <mxCell id="rm7FIDK_wC54tCsGElGW-2" value="Email" style="rounded=0;whiteSpace=wrap;html=1;" parent="gcAegZrzO3KHqWlCmLdn-1" vertex="1">
          <mxGeometry x="215" y="300" width="130" height="30" as="geometry" />
        </mxCell>
        <mxCell id="rm7FIDK_wC54tCsGElGW-3" value="Name" style="rounded=0;whiteSpace=wrap;html=1;" parent="gcAegZrzO3KHqWlCmLdn-1" vertex="1">
          <mxGeometry x="475" y="300" width="130" height="30" as="geometry" />
        </mxCell>
        <mxCell id="rm7FIDK_wC54tCsGElGW-4" value="Surname" style="rounded=0;whiteSpace=wrap;html=1;" parent="gcAegZrzO3KHqWlCmLdn-1" vertex="1">
          <mxGeometry x="475" y="350" width="130" height="30" as="geometry" />
        </mxCell>
        <mxCell id="rm7FIDK_wC54tCsGElGW-5" value="Re-enter password" style="rounded=0;whiteSpace=wrap;html=1;" parent="gcAegZrzO3KHqWlCmLdn-1" vertex="1">
          <mxGeometry x="215" y="400" width="130" height="30" as="geometry" />
        </mxCell>
        <mxCell id="rm7FIDK_wC54tCsGElGW-6" value="Country" style="rounded=0;whiteSpace=wrap;html=1;" parent="gcAegZrzO3KHqWlCmLdn-1" vertex="1">
          <mxGeometry x="475" y="505" width="130" height="30" as="geometry" />
        </mxCell>
        <mxCell id="rm7FIDK_wC54tCsGElGW-7" value="Gender" style="rounded=0;whiteSpace=wrap;html=1;" parent="gcAegZrzO3KHqWlCmLdn-1" vertex="1">
          <mxGeometry x="475" y="400" width="130" height="30" as="geometry" />
        </mxCell>
        <mxCell id="rm7FIDK_wC54tCsGElGW-8" value="Phone number" style="rounded=0;whiteSpace=wrap;html=1;" parent="gcAegZrzO3KHqWlCmLdn-1" vertex="1">
          <mxGeometry x="215" y="450" width="130" height="30" as="geometry" />
        </mxCell>
        <mxCell id="rm7FIDK_wC54tCsGElGW-9" value="Date of birth" style="rounded=0;whiteSpace=wrap;html=1;" parent="gcAegZrzO3KHqWlCmLdn-1" vertex="1">
          <mxGeometry x="475" y="450" width="130" height="30" as="geometry" />
        </mxCell>
        <mxCell id="rm7FIDK_wC54tCsGElGW-10" value="Upload an image" style="rounded=0;whiteSpace=wrap;html=1;" parent="gcAegZrzO3KHqWlCmLdn-1" vertex="1">
          <mxGeometry x="215" y="550" width="390" height="120" as="geometry" />
        </mxCell>
        <mxCell id="rm7FIDK_wC54tCsGElGW-11" value="&lt;font style=&quot;font-size: 9px;&quot;&gt;Password policy:&lt;/font&gt;" style="rounded=0;whiteSpace=wrap;html=1;" parent="gcAegZrzO3KHqWlCmLdn-1" vertex="1">
          <mxGeometry x="215" y="380" width="130" height="10" as="geometry" />
        </mxCell>
        <mxCell id="rm7FIDK_wC54tCsGElGW-12" value="Register" style="rounded=0;whiteSpace=wrap;html=1;" parent="gcAegZrzO3KHqWlCmLdn-1" vertex="1">
          <mxGeometry x="345" y="700" width="120" height="40" as="geometry" />
        </mxCell>
      </root>
    </mxGraphModel>
  </diagram>
</mxfile>
